<svg width="138" height="87" viewBox="0 0 138 87" fill="none" xmlns="http://www.w3.org/2000/svg">
<path fill-rule="evenodd" clip-rule="evenodd" d="M32.6003 86.1702C38.9662 86.1702 44.9004 83.7091 49.8952 79.4627C54.89 83.7091 60.8242 86.1702 67.1901 86.1702C74.3437 86.1702 80.9521 83.0624 86.295 77.8058C91.6378 83.0624 98.2462 86.1702 105.4 86.1702C123.17 86.1702 137.576 66.9922 137.576 43.3351C137.576 19.6779 123.17 0.5 105.4 0.5C98.2462 0.5 91.6378 3.60775 86.295 8.86441C80.9521 3.60775 74.3437 0.5 67.1901 0.5C60.8242 0.5 54.89 2.96106 49.8952 7.20746C44.9004 2.96106 38.9662 0.5 32.6003 0.5C14.8297 0.5 0.423706 19.6779 0.423706 43.3351C0.423706 66.9922 14.8297 86.1702 32.6003 86.1702Z" fill="url(#paint0_radial_5043_10776)"/>
<path fill-rule="evenodd" clip-rule="evenodd" d="M32.6003 86.1702C38.9662 86.1702 44.9004 83.7091 49.8952 79.4627C54.89 83.7091 60.8242 86.1702 67.1901 86.1702C74.3437 86.1702 80.9521 83.0624 86.295 77.8058C91.6378 83.0624 98.2462 86.1702 105.4 86.1702C123.17 86.1702 137.576 66.9922 137.576 43.3351C137.576 19.6779 123.17 0.5 105.4 0.5C98.2462 0.5 91.6378 3.60775 86.295 8.86441C80.9521 3.60775 74.3437 0.5 67.1901 0.5C60.8242 0.5 54.89 2.96106 49.8952 7.20746C44.9004 2.96106 38.9662 0.5 32.6003 0.5C14.8297 0.5 0.423706 19.6779 0.423706 43.3351C0.423706 66.9922 14.8297 86.1702 32.6003 86.1702Z" fill="url(#paint1_radial_5043_10776)"/>
<path d="M26.9971 44.9238L26.4775 46.8544L28.4309 47.3773L28.0569 45.9494L26.9971 44.9238ZM36.7432 45.9494L36.3692 47.3773L38.3226 46.8544L37.803 44.9238L36.7432 45.9494ZM28.0569 41.1229L26.9971 42.1486L27.3919 43.5362L28.0569 41.1229Z" fill="white"/>
<path d="M27.3908 43.5361L26.996 44.9238L28.0558 45.9494L27.3908 43.5361Z" fill="white"/>
<path d="M26.9961 42.1486L25.5623 43.5362L26.9961 44.9238L27.391 43.5362L26.9961 42.1486ZM29.9054 47.7392L30.9652 48.7649L32.3991 48.3828L29.9054 47.7392ZM33.833 48.7649L35.8279 49.2676L36.3682 47.3773L34.8928 47.7392L33.833 48.7649Z" fill="white"/>
<path d="M34.8923 47.7393L36.3677 47.3773L36.7417 45.9495L34.8923 47.7393ZM28.4294 47.3773L28.9697 49.2677L30.9647 48.7649L29.9049 47.7393L28.4294 47.3773ZM32.3986 48.3828L33.8324 48.7649L34.8923 47.7393L32.3986 48.3828Z" fill="white"/>
<path d="M30.9662 48.7649L32.4001 50.1525L33.8339 48.7649L32.4001 48.3828L30.9662 48.7649ZM28.4309 39.6951L26.4775 40.2179L26.9971 42.1485L28.0569 41.1229L28.4309 39.6951ZM28.0569 45.9494L28.4309 47.3772L29.9064 47.7392L28.0569 45.9494ZM37.4082 43.5362L37.803 42.1485L36.7432 41.1229L37.4082 43.5362Z" fill="white"/>
<path d="M29.9054 39.3333L28.43 39.6952L28.0559 41.1231L29.9054 39.3333ZM36.7423 41.1231L36.3682 39.6952L34.8928 39.3333L36.7423 41.1231ZM37.8021 44.9239L39.2359 43.5363L37.8021 42.1487L37.4072 43.5363L37.8021 44.9239Z" fill="white"/>
<path d="M36.7426 41.1229L34.8931 39.3331L32.3994 38.6896L29.9057 39.3331L28.0562 41.1229L27.3912 43.5362L28.0562 45.9494L29.9057 47.7393L32.3994 48.3828L34.8931 47.7393L36.7426 45.9494L37.4076 43.5362L36.7426 41.1229Z" fill="white"/>
<path d="M36.7417 45.9494L37.8016 44.9238L37.4067 43.5362L36.7417 45.9494ZM37.8016 42.1485L38.3211 40.2179L36.3677 39.6951L36.7417 41.1229L37.8016 42.1485ZM36.3677 39.6951L35.8274 37.8047L33.8324 38.3074L34.8923 39.3331L36.3677 39.6951ZM30.9647 38.3074L28.9697 37.8047L28.4294 39.6951L29.9049 39.3331L30.9647 38.3074ZM32.3986 38.6895L30.9647 38.3074L29.9049 39.3331L32.3986 38.6895Z" fill="white"/>
<path d="M33.8336 38.3077L32.3997 36.92L30.9658 38.3077L32.3997 38.6898L33.8336 38.3077Z" fill="white"/>
<path d="M34.8928 39.3331L33.833 38.3075L32.3991 38.6896L34.8928 39.3331ZM30.9652 48.7649L28.9703 49.2677L29.9054 52.606L32.3991 50.1525L30.9652 48.7649ZM29.9054 52.606L32.3991 61.6356L34.8928 52.606L32.3991 50.1525L29.9054 52.606ZM28.43 47.3773L26.4766 46.8544L25.5623 50.1525L28.9703 49.2677L28.43 47.3773Z" fill="white"/>
<path d="M25.5623 50.1525L23.0686 59.2223L29.9055 52.606L28.9703 49.2677L25.5623 50.1525ZM23.0686 45.9495L16.1902 52.606L25.5623 50.1525L26.4767 46.8544L23.0686 45.9495Z" fill="white"/>
<path d="M26.996 44.9239L25.5622 43.5362L23.0685 45.9495L26.4765 46.8544L26.996 44.9239ZM26.996 42.1486L26.4765 40.218L23.0685 41.123L25.5622 43.5362L26.996 42.1486Z" fill="white"/>
<path d="M23.0686 41.1229L13.6965 43.5362L23.0686 45.9494L25.5623 43.5362L23.0686 41.1229ZM41.7713 45.9494L38.3217 46.8544L39.2361 50.1525L48.6082 52.606L41.7713 45.9494Z" fill="white"/>
<path d="M36.3684 47.3772L35.8281 49.2676L39.2362 50.1525L38.3218 46.8543L36.3684 47.3772ZM33.8332 48.7648L32.3993 50.1525L34.893 52.6059L35.8281 49.2676L33.8332 48.7648ZM37.8023 44.9238L38.3218 46.8543L41.7714 45.9494L39.2362 43.5361L37.8023 44.9238Z" fill="white"/>
<path d="M34.8929 52.6062L41.7714 59.2225L39.2361 50.1527L35.8281 49.2678L34.8929 52.6062ZM36.3684 39.6953L38.3218 40.2181L39.2361 36.92L35.8281 37.8049L36.3684 39.6953Z" fill="white"/>
<path d="M41.7714 41.123L48.6082 34.5066L39.2361 36.9199L38.3218 40.218L41.7714 41.123ZM39.2361 36.9199L41.7714 27.8501L34.8929 34.5066L35.8281 37.8047L39.2361 36.9199ZM41.7714 45.9495L51.1019 43.5362L41.7714 41.123L39.2361 43.5362L41.7714 45.9495Z" fill="white"/>
<path d="M37.802 42.1486L39.2359 43.5362L41.7711 41.123L38.3215 40.218L37.802 42.1486ZM29.9053 34.5066L23.0685 27.8501L25.5622 36.9199L28.9702 37.8047L29.9053 34.5066Z" fill="white"/>
<path d="M28.43 39.6953L28.9703 37.8049L25.5623 36.92L26.4766 40.2181L28.43 39.6953Z" fill="white"/>
<path d="M25.5623 36.92L16.1902 34.5067L23.0686 41.123L26.4767 40.2181L25.5623 36.92ZM33.833 38.3076L35.828 37.8048L34.8929 34.5067L32.3992 36.92L33.833 38.3076Z" fill="white"/>
<path d="M34.8929 34.5067L32.3992 25.4369L29.9055 34.5067L32.3992 36.9199L34.8929 34.5067Z" fill="white"/>
<path d="M30.9647 38.3076L32.3985 36.92L29.9049 34.5067L28.9697 37.8048L30.9647 38.3076Z" fill="white"/>
<path d="M32.3986 53.8126C38.2633 53.8126 43.0176 49.2117 43.0176 43.5362C43.0176 37.8607 38.2633 33.2598 32.3986 33.2598C26.5339 33.2598 21.7797 37.8607 21.7797 43.5362C21.7797 49.2117 26.5339 53.8126 32.3986 53.8126Z" fill="#FE00BA"/>
<path d="M32.3995 52.6059C37.5755 52.6059 41.7716 48.5452 41.7716 43.5361C41.7716 38.527 37.5755 34.4663 32.3995 34.4663C27.2234 34.4663 23.0273 38.527 23.0273 43.5361C23.0273 48.5452 27.2234 52.6059 32.3995 52.6059Z" fill="white"/>
<path d="M88.3312 43.3803C88.3312 49.0064 86.611 54.0578 83.8823 57.6781C81.154 61.2978 77.4677 63.4359 73.4869 63.4359C69.5061 63.4359 65.8198 61.2978 63.0914 57.6781C60.3627 54.0578 58.6425 49.0064 58.6425 43.3803C58.6425 37.7542 60.3627 32.7028 63.0914 29.0825C65.8198 25.4628 69.5061 23.3247 73.4869 23.3247C77.4677 23.3247 81.154 25.4628 83.8823 29.0825C86.611 32.7028 88.3312 37.7542 88.3312 43.3803Z" stroke="white" stroke-width="2.21086"/>
<mask id="mask0_5043_10776" style="mask-type:alpha" maskUnits="userSpaceOnUse" x="57" y="22" width="33" height="43">
<ellipse cx="73.4869" cy="43.3803" rx="15.9498" ry="21.1611" fill="white"/>
</mask>
<g mask="url(#mask0_5043_10776)">
<ellipse cx="82.6462" cy="43.3802" rx="13.4336" ry="17.8227" fill="white"/>
</g>
<path d="M123.198 43.3803C123.198 49.0064 121.478 54.0578 118.749 57.6781C116.021 61.2978 112.334 63.4359 108.354 63.4359C104.373 63.4359 100.687 61.2978 97.9583 57.6781C95.2296 54.0578 93.5094 49.0064 93.5094 43.3803C93.5094 37.7542 95.2296 32.7028 97.9583 29.0825C100.687 25.4628 104.373 23.3247 108.354 23.3247C112.334 23.3247 116.021 25.4628 118.749 29.0825C121.478 32.7028 123.198 37.7542 123.198 43.3803Z" stroke="white" stroke-width="2.21086"/>
<mask id="mask1_5043_10776" style="mask-type:alpha" maskUnits="userSpaceOnUse" x="92" y="22" width="33" height="43">
<ellipse cx="108.354" cy="43.3803" rx="15.9498" ry="21.1611" fill="white"/>
</mask>
<g mask="url(#mask1_5043_10776)">
<ellipse cx="117.513" cy="43.3802" rx="13.4336" ry="17.8227" fill="white"/>
</g>
<defs>
<radialGradient id="paint0_radial_5043_10776" cx="0" cy="0" r="1" gradientUnits="userSpaceOnUse" gradientTransform="translate(-5.4083 0.500001) rotate(44.561) scale(74.2315 118.84)">
<stop stop-color="#FBFFD1"/>
<stop offset="1" stop-color="#D5009C"/>
</radialGradient>
<radialGradient id="paint1_radial_5043_10776" cx="0" cy="0" r="1" gradientUnits="userSpaceOnUse" gradientTransform="translate(99.1656 43.5362) rotate(18.0761) scale(60.9248 97.5369)">
<stop stop-color="#FF41CD"/>
<stop offset="1" stop-color="#D4009C" stop-opacity="0"/>
</radialGradient>
</defs>
</svg>
