<svg width="313" height="42" viewBox="0 0 313 42" fill="none" xmlns="http://www.w3.org/2000/svg">
<path fill-rule="evenodd" clip-rule="evenodd" d="M12.8944 37.5C15.3465 37.5 17.6323 36.552 19.5563 34.9163C21.4803 36.552 23.7662 37.5 26.2183 37.5C28.9739 37.5 31.5194 36.3029 33.5775 34.278C35.6355 36.3029 38.1811 37.5 40.9366 37.5C47.7818 37.5 53.331 30.1127 53.331 21C53.331 11.8873 47.7818 4.5 40.9366 4.5C38.1811 4.5 35.6355 5.6971 33.5775 7.72196C31.5194 5.6971 28.9739 4.5 26.2183 4.5C23.7662 4.5 21.4803 5.44799 19.5563 7.0837C17.6323 5.44799 15.3465 4.5 12.8944 4.5C6.04915 4.5 0.5 11.8873 0.5 21C0.5 30.1127 6.04915 37.5 12.8944 37.5Z" fill="url(#paint0_radial_4847_6798)"/>
<path fill-rule="evenodd" clip-rule="evenodd" d="M12.8944 37.5C15.3465 37.5 17.6323 36.552 19.5563 34.9163C21.4803 36.552 23.7662 37.5 26.2183 37.5C28.9739 37.5 31.5194 36.3029 33.5775 34.278C35.6355 36.3029 38.1811 37.5 40.9366 37.5C47.7818 37.5 53.331 30.1127 53.331 21C53.331 11.8873 47.7818 4.5 40.9366 4.5C38.1811 4.5 35.6355 5.6971 33.5775 7.72196C31.5194 5.6971 28.9739 4.5 26.2183 4.5C23.7662 4.5 21.4803 5.44799 19.5563 7.0837C17.6323 5.44799 15.3465 4.5 12.8944 4.5C6.04915 4.5 0.5 11.8873 0.5 21C0.5 30.1127 6.04915 37.5 12.8944 37.5Z" fill="url(#paint1_radial_4847_6798)"/>
<path d="M10.7363 21.612L10.5361 22.3557L11.2886 22.5571L11.1445 22.0071L10.7363 21.612ZM14.4905 22.0071L14.3464 22.5571L15.0988 22.3557L14.8987 21.612L14.4905 22.0071ZM11.1445 20.1479L10.7363 20.543L10.8883 21.0775L11.1445 20.1479Z" fill="white"/>
<path d="M10.8884 21.0775L10.7363 21.612L11.1446 22.0071L10.8884 21.0775Z" fill="white"/>
<path d="M10.7359 20.5431L10.1836 21.0776L10.7359 21.6121L10.888 21.0776L10.7359 20.5431ZM11.8566 22.6966L12.2648 23.0917L12.8171 22.9445L11.8566 22.6966ZM13.3695 23.0917L14.1379 23.2853L14.346 22.5572L13.7777 22.6966L13.3695 23.0917Z" fill="white"/>
<path d="M13.7775 22.6965L14.3459 22.5571L14.49 22.0071L13.7775 22.6965ZM11.2881 22.5571L11.4962 23.2853L12.2647 23.0916L11.8564 22.6965L11.2881 22.5571ZM12.817 22.9444L13.3693 23.0916L13.7775 22.6965L12.817 22.9444Z" fill="white"/>
<path d="M12.2651 23.0916L12.8175 23.6261L13.3698 23.0916L12.8175 22.9444L12.2651 23.0916ZM11.2886 19.5979L10.5361 19.7993L10.7363 20.543L11.1445 20.1479L11.2886 19.5979ZM11.1445 22.0071L11.2886 22.5571L11.8569 22.6965L11.1445 22.0071ZM14.7466 21.0775L14.8987 20.543L14.4905 20.1479L14.7466 21.0775Z" fill="white"/>
<path d="M11.8569 19.4586L11.2886 19.5981L11.1445 20.1481L11.8569 19.4586ZM14.4905 20.1481L14.3464 19.5981L13.7781 19.4586L14.4905 20.1481ZM14.8987 21.6121L15.4511 21.0776L14.8987 20.5431L14.7466 21.0776L14.8987 21.6121Z" fill="white"/>
<path d="M14.4908 20.148L13.7784 19.4586L12.8178 19.2107L11.8572 19.4586L11.1448 20.148L10.8887 21.0776L11.1448 22.0072L11.8572 22.6966L12.8178 22.9445L13.7784 22.6966L14.4908 22.0072L14.7469 21.0776L14.4908 20.148Z" fill="white"/>
<path d="M14.49 22.0071L14.8982 21.612L14.7461 21.0775L14.49 22.0071ZM14.8982 20.543L15.0983 19.7993L14.3459 19.5979L14.49 20.1479L14.8982 20.543ZM14.3459 19.5979L14.1378 18.8698L13.3693 19.0634L13.7775 19.4585L14.3459 19.5979ZM12.2647 19.0634L11.4962 18.8698L11.2881 19.5979L11.8564 19.4585L12.2647 19.0634ZM12.817 19.2106L12.2647 19.0634L11.8564 19.4585L12.817 19.2106Z" fill="white"/>
<path d="M13.3703 19.0636L12.8179 18.5291L12.2656 19.0636L12.8179 19.2107L13.3703 19.0636Z" fill="white"/>
<path d="M13.7777 19.4585L13.3695 19.0635L12.8171 19.2107L13.7777 19.4585ZM12.2648 23.0917L11.4964 23.2853L11.8566 24.5712L12.8171 23.6262L12.2648 23.0917ZM11.8566 24.5712L12.8171 28.0494L13.7777 24.5712L12.8171 23.6262L11.8566 24.5712ZM11.2882 22.5571L10.5358 22.3557L10.1836 23.6262L11.4964 23.2853L11.2882 22.5571Z" fill="white"/>
<path d="M10.1843 23.6261L9.22378 27.1198L11.8573 24.5712L11.4971 23.2853L10.1843 23.6261ZM9.22378 22.0071L6.57422 24.5712L10.1843 23.6261L10.5365 22.3557L9.22378 22.0071Z" fill="white"/>
<path d="M10.7365 21.612L10.1842 21.0775L9.22363 22.0071L10.5364 22.3557L10.7365 21.612ZM10.7365 20.543L10.5364 19.7993L9.22363 20.1479L10.1842 21.0775L10.7365 20.543Z" fill="white"/>
<path d="M9.2234 20.1479L5.61328 21.0775L9.2234 22.0071L10.184 21.0775L9.2234 20.1479ZM16.4276 22.0071L15.0989 22.3557L15.4511 23.6261L19.0612 24.5712L16.4276 22.0071Z" fill="white"/>
<path d="M14.3463 22.5571L14.1382 23.2853L15.4509 23.6261L15.0987 22.3557L14.3463 22.5571ZM13.3697 23.0916L12.8174 23.6261L13.7779 24.5712L14.1382 23.2853L13.3697 23.0916ZM14.8986 21.612L15.0987 22.3557L16.4275 22.0071L15.4509 21.0775L14.8986 21.612Z" fill="white"/>
<path d="M13.7783 24.5713L16.4279 27.1199L15.4513 23.6262L14.1385 23.2854L13.7783 24.5713ZM14.3467 19.5981L15.0991 19.7995L15.4513 18.5291L14.1385 18.8699L14.3467 19.5981Z" fill="white"/>
<path d="M16.4279 20.148L19.0614 17.5994L15.4513 18.5289L15.0991 19.7994L16.4279 20.148ZM15.4513 18.5289L16.4279 15.0353L13.7783 17.5994L14.1385 18.8698L15.4513 18.5289ZM16.4279 22.0071L20.022 21.0775L16.4279 20.148L15.4513 21.0775L16.4279 22.0071Z" fill="white"/>
<path d="M14.899 20.543L15.4513 21.0775L16.4279 20.148L15.0991 19.7994L14.899 20.543ZM11.8572 17.5994L9.22363 15.0353L10.1842 18.5289L11.497 18.8698L11.8572 17.5994Z" fill="white"/>
<path d="M11.2882 19.5981L11.4964 18.8699L10.1836 18.5291L10.5358 19.7995L11.2882 19.5981Z" fill="white"/>
<path d="M10.1843 18.5289L6.57422 17.5994L9.22378 20.148L10.5365 19.7994L10.1843 18.5289ZM13.3702 19.0635L14.1387 18.8698L13.7785 17.5994L12.8179 18.5289L13.3702 19.0635Z" fill="white"/>
<path d="M13.7776 17.5994L12.817 14.1057L11.8564 17.5994L12.817 18.529L13.7776 17.5994Z" fill="white"/>
<path d="M12.2645 19.0635L12.8169 18.5289L11.8563 17.5994L11.4961 18.8698L12.2645 19.0635Z" fill="white"/>
<path d="M12.817 25.0359C15.076 25.0359 16.9074 23.2637 16.9074 21.0775C16.9074 18.8913 15.076 17.119 12.817 17.119C10.5579 17.119 8.72656 18.8913 8.72656 21.0775C8.72656 23.2637 10.5579 25.0359 12.817 25.0359Z" fill="#FE00BA"/>
<path d="M12.8181 24.5712C14.8119 24.5712 16.4283 23.007 16.4283 21.0775C16.4283 19.148 14.8119 17.5839 12.8181 17.5839C10.8243 17.5839 9.20801 19.148 9.20801 21.0775C9.20801 23.007 10.8243 24.5712 12.8181 24.5712Z" fill="white"/>
<path d="M34.3618 21.0174C34.3618 23.1846 33.6992 25.1304 32.6481 26.5249C31.5972 27.9192 30.1772 28.7428 28.6438 28.7428C27.1104 28.7428 25.6905 27.9192 24.6395 26.5249C23.5884 25.1304 22.9258 23.1846 22.9258 21.0174C22.9258 18.8502 23.5884 16.9045 24.6395 15.5099C25.6905 14.1156 27.1104 13.292 28.6438 13.292C30.1772 13.292 31.5972 14.1156 32.6481 15.5099C33.6992 16.9045 34.3618 18.8502 34.3618 21.0174Z" stroke="white" stroke-width="0.851618"/>
<mask id="mask0_4847_6798" style="mask-type:alpha" maskUnits="userSpaceOnUse" x="22" y="12" width="13" height="18">
<ellipse cx="28.6438" cy="21.0174" rx="6.14382" ry="8.1512" fill="white"/>
</mask>
<g mask="url(#mask0_4847_6798)">
<ellipse cx="32.1717" cy="21.0174" rx="5.17458" ry="6.86529" fill="white"/>
</g>
<path d="M47.7925 21.0174C47.7925 23.1846 47.1299 25.1304 46.0788 26.5249C45.0278 27.9192 43.6079 28.7428 42.0745 28.7428C40.5411 28.7428 39.1211 27.9192 38.0702 26.5249C37.0191 25.1304 36.3565 23.1846 36.3565 21.0174C36.3565 18.8502 37.0191 16.9045 38.0702 15.5099C39.1211 14.1156 40.5411 13.292 42.0745 13.292C43.6079 13.292 45.0278 14.1156 46.0788 15.5099C47.1299 16.9045 47.7925 18.8502 47.7925 21.0174Z" stroke="white" stroke-width="0.851618"/>
<mask id="mask1_4847_6798" style="mask-type:alpha" maskUnits="userSpaceOnUse" x="35" y="12" width="14" height="18">
<ellipse cx="42.0745" cy="21.0174" rx="6.14382" ry="8.1512" fill="white"/>
</mask>
<g mask="url(#mask1_4847_6798)">
<ellipse cx="45.6023" cy="21.0174" rx="5.17458" ry="6.86529" fill="white"/>
</g>
<path d="M89.2191 18.772C88.2297 19.5933 87.0817 20.956 85.7751 22.86H87.1471V33.5H80.3991V33.08H70.2631V33.5H63.5151V22.86H83.2831L81.9671 21.46L62.6191 22.44C62.5817 22.104 62.5444 21.8427 62.5071 21.656C62.2644 19.64 62.0031 18.0627 61.7231 16.924L65.4751 16.84L68.4431 11.912L76.1151 12.388L73.6791 16.672L78.0191 16.56C77.3657 15.6453 76.7031 14.544 76.0311 13.256L82.1071 11.968C83.2271 13.5547 84.4124 14.908 85.6631 16.028C86.9137 17.148 88.0991 18.0627 89.2191 18.772ZM70.2631 27.06V28.348H80.3991V27.06H70.2631ZM103.555 28.404H116.715C116.715 29.2253 116.678 29.9813 116.603 30.672C116.528 31.6987 116.006 32.4267 115.035 32.856C114.064 33.2667 112.664 33.472 110.835 33.472H106.047H102.939C102.808 32.856 102.594 32.2867 102.295 31.764C99.9617 31.4467 97.8711 31.2787 96.0231 31.26C96.6951 29.5427 97.1524 27.9933 97.3951 26.612H109.099V26.276H96.5831V25.072L96.4151 25.94C95.6684 29.7293 95.1364 32.2773 94.8191 33.584C92.3924 32.9867 90.5351 32.5853 89.2471 32.38C89.8257 30.7747 90.3017 29.2347 90.6751 27.76C91.0484 26.2667 91.4124 24.652 91.7671 22.916L93.6711 23.224C92.4951 22.5893 91.1044 22.0573 89.4991 21.628L92.1031 17.344C92.9991 17.6053 94.1377 18.072 95.5191 18.744L96.4431 19.164C96.4431 18.5853 96.3964 17.904 96.3031 17.12L97.4791 17.064L97.8991 16.616C97.5631 16.2427 97.1711 15.8413 96.7231 15.412L95.4351 18.1C93.4937 17.204 91.4777 16.5507 89.3871 16.14L91.7671 11.66C92.5884 11.8653 93.7924 12.2947 95.3791 12.948L96.8071 13.508L97.1991 12.668L97.5631 13.004C97.8991 12.4813 98.1604 11.9867 98.3471 11.52L100.531 12.136L98.9911 14.432L99.3271 14.796C100.018 13.844 100.652 12.8173 101.231 11.716L102.995 12.276H110.331V13.788H102.995V13.06L102.519 13.732C102.276 14.124 102.015 14.5067 101.735 14.88L102.435 14.768C102.491 15.272 102.556 15.776 102.631 16.28C102.724 16.784 102.79 17.148 102.827 17.372C102.976 18.2307 103.07 18.8187 103.107 19.136L101.539 19.36L101.483 18.884L101.063 18.968L100.951 24.008H98.2631L98.3471 19.332L97.0591 19.472L96.8351 19.892L97.8991 19.864V20.76C97.8991 21.8427 97.8431 22.9067 97.7311 23.952C97.5817 23.9333 97.4324 23.9147 97.2831 23.896C97.1524 23.8773 96.9937 23.868 96.8071 23.868L96.7231 24.316H116.043V28.124H103.611L103.555 28.404ZM110.443 14.236L111.171 12.668L111.535 13.004C111.871 12.4813 112.132 11.9867 112.319 11.52L114.503 12.136C113.812 13.1813 113.299 13.9373 112.963 14.404L113.299 14.796C113.99 13.8813 114.634 12.8547 115.231 11.716L117.023 12.668L115.511 14.908L116.407 14.768C116.575 16.168 116.762 17.4093 116.967 18.492L117.079 19.136L115.511 19.36L115.455 18.884L115.035 18.968L114.923 24.008H112.235L112.319 19.332C112.132 19.3507 111.47 19.416 110.331 19.528C110.331 18.576 110.275 17.7733 110.163 17.12L111.479 17.064L111.871 16.644C111.498 16.196 111.04 15.72 110.499 15.216V15.888H102.883V14.236H110.443ZM114.951 15.748L114.167 16.98C114.428 16.98 114.746 16.9613 115.119 16.924L114.951 15.748ZM100.251 16.98L101.147 16.924C101.128 16.7187 101.082 16.392 101.007 15.944L100.251 16.98ZM103.415 16.392H109.883V17.932H103.415V16.392ZM109.883 19.892H103.415V18.38H109.883V19.892ZM101.427 23.868C101.371 22.2067 101.343 20.844 101.343 19.78L102.771 19.696C102.771 21.376 102.79 22.7107 102.827 23.7C102.584 23.756 102.118 23.812 101.427 23.868ZM116.715 19.696C116.715 20.4427 116.734 21.0867 116.771 21.628C116.808 22.1507 116.874 22.832 116.967 23.672C116.071 23.784 115.548 23.8493 115.399 23.868C115.343 22.2067 115.315 20.844 115.315 19.78L116.715 19.696ZM110.387 23.84C110.518 22.6453 110.583 21.3293 110.583 19.892L111.871 19.864V20.76C111.871 21.8427 111.815 22.9067 111.703 23.952C110.956 23.8773 110.518 23.84 110.387 23.84ZM94.7911 23.42L96.3031 23.672C96.4337 23.0187 96.5177 22.4493 96.5551 21.964C96.5924 21.4787 96.6111 20.9093 96.6111 20.256L94.7911 23.42ZM110.079 24.008H103.219V20.368H110.079V24.008ZM107.391 21.908H105.907V22.58H107.391V21.908ZM103.023 30.196L102.911 30.504C104.61 30.56 106.654 30.588 109.043 30.588C109.454 30.588 109.734 30.5693 109.883 30.532C110.051 30.476 110.144 30.364 110.163 30.196H103.023ZM137.491 29.384V29.776H144.407V33.276H124.051V30.308C123.883 31.5773 123.622 32.716 123.267 33.724C121.942 33.0707 120.859 32.5667 120.019 32.212C119.179 31.8573 118.283 31.596 117.331 31.428C117.704 30.42 117.984 29.44 118.171 28.488C118.358 27.5173 118.488 26.2293 118.563 24.624C118.656 23.0187 118.703 20.7507 118.703 17.82V12.556L144.379 12.584L144.407 17.036H124.555C124.536 17.204 124.527 17.344 124.527 17.456C124.546 17.5493 124.555 17.6427 124.555 17.736V19.136C124.555 20.4427 124.536 21.992 124.499 23.784C125.096 23.672 125.544 23.5507 125.843 23.42C126.16 23.2893 126.412 23.112 126.599 22.888H124.919V20.368H127.103V20.06H125.199C125.218 19.276 125.124 18.4453 124.919 17.568H126.039C128.13 17.568 130.659 17.5027 133.627 17.372C133.44 18.3053 133.347 19.136 133.347 19.864L131.499 19.948V20.368H133.627V22.888H131.667C132.414 23.28 133.282 23.532 134.271 23.644L134.019 23.868C134.486 23.756 134.878 23.6347 135.195 23.504C135.531 23.3547 135.83 23.1493 136.091 22.888H134.103V20.368H136.399V20.06H134.187C134.206 19.2387 134.103 18.408 133.879 17.568H135.139C137.454 17.568 140.244 17.5027 143.511 17.372C143.306 18.2493 143.203 19.08 143.203 19.864L140.963 19.948V20.368H143.511V22.888H141.271C141.962 23.336 142.895 23.6627 144.071 23.868C143.548 24.5773 143.184 25.6133 142.979 26.976C142.064 26.64 141.392 26.0333 140.963 25.156V26.864H137.491V27.284H143.483V29.384H137.491ZM124.471 24.316C124.415 26.332 124.294 28.152 124.107 29.776H125.479V27.172H131.107V29.776H131.891V26.528H132.731C132.246 26.2667 131.835 26.0053 131.499 25.744V26.864H127.103V25.52C126.711 26.192 126.17 26.6773 125.479 26.976C125.404 26.4347 125.292 25.9587 125.143 25.548C124.994 25.1187 124.77 24.708 124.471 24.316ZM134.355 26.528C134.075 25.968 133.739 25.4173 133.347 24.876C133.16 25.268 132.974 25.8187 132.787 26.528H134.355ZM136.399 25.212C136.138 25.6413 135.718 26.08 135.139 26.528H136.399V25.212ZM172.491 25.548V30.868H164.511V33.64H158.379V30.868H146.171V25.548H149.811V23.392C149.438 23.784 149.036 24.1573 148.607 24.512C148.14 23.1307 147.692 21.9453 147.263 20.956C146.852 19.948 146.358 18.9867 145.779 18.072C146.731 17.4373 147.487 16.5787 148.047 15.496C148.626 14.4133 148.924 13.1907 148.943 11.828L155.271 11.884C155.234 12.3133 155.178 12.7707 155.103 13.256H171.427V18.296H164.511V19.5H170.671V23.952H164.511V25.548H172.491ZM158.379 18.296H153.479L152.835 19.5H158.379V18.296ZM155.831 23.952V25.548H158.379V23.952H155.831ZM197.831 25.996C198.204 26.5747 198.68 27.0227 199.259 27.34C199.838 27.6573 200.556 27.8627 201.415 27.956C201.004 28.74 200.65 29.5707 200.351 30.448C200.071 31.3067 199.782 32.3987 199.483 33.724C198.438 33.0893 197.504 32.24 196.683 31.176C196.702 31.2693 196.711 31.4 196.711 31.568C196.711 32.6133 196.188 33.192 195.143 33.304C194.042 33.3787 193.034 33.416 192.119 33.416C191.167 33.416 190.252 33.3787 189.375 33.304C188.759 33.248 188.302 33.108 188.003 32.884C187.723 32.6413 187.583 32.296 187.583 31.848V31.764C186.911 32.4547 186.062 33.108 185.035 33.724C184.718 32.212 184.391 30.9893 184.055 30.056L184.223 31.736L184.279 32.324L182.907 32.492L181.619 32.66C181.526 29.4493 181.479 26.976 181.479 25.24L183.887 25.1C183.887 26.3693 183.896 27.2747 183.915 27.816C185.184 27.536 186.108 26.9293 186.687 25.996H184.223V24.372L181.563 24.792L181.507 24.204L180.975 24.288V33.528H176.915V24.848C175.926 24.9787 174.88 25.0907 173.779 25.184C173.779 23.504 173.704 22.132 173.555 21.068L175.263 21.012L175.991 20.088C175.599 19.6027 175.16 19.0987 174.675 18.576C174.19 18.0533 173.77 17.6333 173.415 17.316L174.983 13.48C175.375 13.872 175.571 14.068 175.571 14.068C176.019 13.3213 176.439 12.472 176.831 11.52L180.471 12.528C179.332 14.3947 178.483 15.7387 177.923 16.56L178.259 16.952C179.379 15.272 180.368 13.5733 181.227 11.856L184.587 13.004H189.487L189.683 12.36H194.303L194.107 13.004H200.015V25.996H197.831ZM183.327 17.148L183.831 20.256C183.943 20.816 184.074 21.5813 184.223 22.552V14.348L182.291 17.316L183.327 17.148ZM188.451 16.308V16.84L189.459 16.42C189.851 16.6253 190.14 16.812 190.327 16.98C190.476 16.812 190.626 16.588 190.775 16.308H188.451ZM195.843 16.728V16.308H193.043L192.903 16.728H195.843ZM188.451 18.324C188.918 18.1187 189.216 17.9787 189.347 17.904C189.086 17.6987 188.787 17.4933 188.451 17.288V18.324ZM193.155 19.276C193.416 19.0893 193.668 18.8467 193.911 18.548H192.091L193.155 19.276ZM189.431 20.368C189.188 20.0133 188.862 19.6027 188.451 19.136V20.452L189.431 20.368ZM181.003 20.816C180.91 20.2187 180.844 19.7987 180.807 19.556L180.471 20.06C180.396 20.172 180.312 20.2933 180.219 20.424C180.126 20.5547 180.023 20.704 179.911 20.872L181.003 20.816ZM190.831 19.696C190.551 19.9387 190.262 20.1533 189.963 20.34C190.504 20.284 190.962 20.2 191.335 20.088L190.831 19.696ZM195.451 21.236L194.527 22.328H195.843V20.004C195.619 20.284 195.339 20.5827 195.003 20.9L195.451 21.236ZM188.451 22.328H189.151C188.964 21.8427 188.731 21.376 188.451 20.928V22.328ZM193.687 21.796C193.463 21.9267 193.09 22.104 192.567 22.328H194.247L193.687 21.796ZM174.059 25.492C174.414 25.492 174.908 25.4733 175.543 25.436L176.439 25.408V26.36C176.439 27.592 176.42 28.684 176.383 29.636C176.346 30.588 176.252 31.652 176.103 32.828C175.954 32.8093 175.636 32.772 175.151 32.716C174.684 32.6413 174.134 32.604 173.499 32.604C173.742 31.372 173.891 30.2613 173.947 29.272C174.022 28.264 174.059 27.004 174.059 25.492ZM191.671 25.996H187.751C188.647 26.556 189.431 26.9853 190.103 27.284H190.747C190.598 27.0973 190.318 26.7987 189.907 26.388L191.671 25.996ZM195.059 26.668C195.563 26.4627 196.067 26.2387 196.571 25.996H194.219C194.686 26.388 194.966 26.612 195.059 26.668ZM192.959 28.992C193.22 28.9733 193.351 28.8707 193.351 28.684C193.351 28.6653 193.314 28.488 193.239 28.152L191.811 28.544L191.139 27.732L190.999 28.516C190.98 28.572 190.971 28.656 190.971 28.768C190.971 28.9547 191.064 29.048 191.251 29.048C192.222 29.048 192.791 29.0293 192.959 28.992ZM193.435 28.124C193.771 28.18 194.098 28.208 194.415 28.208C194.658 28.208 194.844 28.1987 194.975 28.18L194.807 27.732L193.435 28.124ZM225.215 23.196C225.794 23.5693 226.298 23.8587 226.727 24.064C227.156 24.2693 227.623 24.428 228.127 24.54C228.426 26.0893 228.575 27.536 228.575 28.88C228.575 30.1867 228.426 31.1853 228.127 31.876C227.922 32.3613 227.679 32.716 227.399 32.94C227.119 33.1453 226.876 33.2667 226.671 33.304C226.466 33.3227 226.214 33.332 225.915 33.332H223.143C222.359 33.332 221.752 33.2667 221.323 33.136C220.912 32.9867 220.614 32.744 220.427 32.408C220.259 32.0533 220.175 31.54 220.175 30.868C220.175 30.6813 220.194 30.308 220.231 29.748L220.763 23.28L220.147 23.336C220.072 26.0427 219.914 28.124 219.671 29.58C219.428 31.0173 219.092 32.3613 218.663 33.612C216.908 33.0147 215.471 32.5853 214.351 32.324L212.671 32.492L211.159 32.66C211.047 29.7667 210.991 27.2933 210.991 25.24L213.847 25.1C213.847 27.0973 213.922 28.8427 214.071 30.336C214.444 29.496 214.743 28.5813 214.967 27.592C215.191 26.6027 215.34 25.3427 215.415 23.812L214.911 23.868C214.836 22.916 214.762 22.1227 214.687 21.488C214.612 20.8533 214.482 20.06 214.295 19.108L215.667 19.024L216.479 17.232H213.959V14.74L211.943 17.316L213.175 17.148C213.586 18.94 213.884 20.3493 214.071 21.376C214.276 22.384 214.426 23.3827 214.519 24.372L211.075 24.82L211.019 24.204L210.487 24.288V33.528H205.531V24.848C204.374 24.9787 203.142 25.0907 201.835 25.184C201.835 23.504 201.76 22.132 201.611 21.068L203.599 21.012L204.495 20.088C204.01 19.584 203.478 19.0707 202.899 18.548C202.32 18.0253 201.826 17.6147 201.415 17.316L203.263 13.48L203.991 14.068C204.42 13.4707 204.906 12.6213 205.447 11.52L209.787 12.528L209.311 13.172C208.172 14.7587 207.332 15.888 206.791 16.56L207.155 16.952C208.443 15.272 209.628 13.5733 210.711 11.856L214.519 12.948H218.159V11.912H223.283V12.948H228.239V17.232H226.195C227.203 18.184 228.276 19.0707 229.415 19.892C228.874 20.3213 228.304 20.872 227.707 21.544C227.128 22.216 226.652 22.86 226.279 23.476L225.551 22.776L225.243 22.804L225.215 23.196ZM221.491 17.232L220.847 18.688L222.163 18.604C221.902 18.2307 221.715 17.9507 221.603 17.764L223.647 17.232H221.491ZM210.263 19.472C209.74 20.1067 209.367 20.5733 209.143 20.872L210.515 20.816L210.263 19.472ZM224.851 27.396V27.452C224.851 27.5827 224.879 27.6947 224.935 27.788C225.01 27.8627 225.094 27.9 225.187 27.9C225.28 27.9 225.364 27.8533 225.439 27.76C225.514 27.6667 225.551 27.536 225.551 27.368C225.551 26.4347 225.42 25.2587 225.159 23.84L224.851 27.396ZM202.199 25.492C202.572 25.492 203.151 25.4733 203.935 25.436L205.055 25.408C205.055 27.0693 205.027 28.3947 204.971 29.384C204.934 30.3547 204.803 31.5027 204.579 32.828C204.448 32.8093 204.094 32.772 203.515 32.716C202.955 32.6413 202.283 32.604 201.499 32.604C201.798 31.372 201.984 30.2613 202.059 29.272C202.152 28.2827 202.199 27.0227 202.199 25.492ZM262.517 16.56L262.069 17.764C261.303 19.8173 260.771 21.1893 260.473 21.88C261.705 23.784 262.321 25.4827 262.321 26.976C262.321 28.6747 261.873 29.9813 260.977 30.896C260.099 31.792 258.886 32.2213 257.337 32.184C257.131 30.4667 256.767 29.076 256.245 28.012V33.388H251.009V15.86L250.141 17.12H250.365V20.872H246.977L246.725 21.096L246.361 21.404H250.337V33.556H245.129V33.276H242.049V33.556H236.785V27.228L235.973 27.564C235.805 25.5667 235.422 23.84 234.825 22.384C236.15 22.1787 237.279 21.9733 238.213 21.768C239.146 21.544 240.014 21.2453 240.817 20.872H235.497V17.12H238.493V16.532H236.029V12.724H238.493V11.968H244.177V12.724H247.173V13.704C247.247 13.5547 247.313 13.4147 247.369 13.284C247.443 13.1347 247.509 13.004 247.565 12.892L247.817 12.304L251.009 13.48V12.472H261.089L262.517 16.56ZM244.177 16.532V17.12H245.185L245.605 16.532H244.177ZM256.245 17.204V20.536C256.879 19.2293 257.206 18.1187 257.225 17.204H256.245ZM256.245 26.976C256.506 26.864 256.721 26.696 256.889 26.472C257.057 26.248 257.141 25.9773 257.141 25.66C257.141 25.0253 256.842 24.2973 256.245 23.476V26.976ZM242.049 25.548H245.129V24.82H242.049V25.548ZM242.049 28.684V29.44H245.129V28.684H242.049ZM290.461 22.384V25.436H287.437C288.146 25.8653 289.098 26.2573 290.293 26.612C290.293 28.7027 290.227 30.2333 290.097 31.204C289.985 32.156 289.789 32.7813 289.509 33.08C289.229 33.36 288.799 33.5 288.221 33.5C287.194 33.5 286.251 33.4253 285.393 33.276C284.553 33.108 283.657 32.856 282.705 32.52C281.846 32.2213 281.006 31.8573 280.185 31.428C278.654 32.1747 276.377 32.8933 273.353 33.584C272.121 32.744 270.898 32.0533 269.685 31.512C269.498 32.24 269.162 32.94 268.677 33.612L266.297 32.94C264.617 32.4547 263.553 32.156 263.105 32.044C263.571 31.5213 263.907 30.9707 264.113 30.392C264.337 29.7947 264.477 29.1413 264.533 28.432C264.589 27.7227 264.617 26.724 264.617 25.436H263.525V22.384H274.753C274.585 20.76 274.501 18.5387 274.501 15.72V13.872C274.538 13.8347 274.193 14.236 273.465 15.076L272.737 15.944L273.745 15.832C273.857 18.0533 274.071 20.032 274.389 21.768L271.897 22.076L271.813 21.488C269.89 21.6373 268.611 21.7307 267.977 21.768C265.737 21.9173 264.206 22.0293 263.385 22.104L263.273 18.856C264.243 18.8187 265.083 18.8 265.793 18.8C264.915 17.624 264.094 16.7 263.329 16.028L265.121 13.48L265.625 14.012C266.129 13.34 266.595 12.612 267.025 11.828L270.329 12.976C269.153 14.4507 268.266 15.5147 267.669 16.168L268.005 16.504C269.125 15.1973 270.207 13.872 271.253 12.528L274.501 13.76L274.529 11.94H279.793V14.152L280.269 13.48L280.689 13.956C281.23 13.1907 281.622 12.556 281.865 12.052L285.225 12.836C284.291 14.3667 283.545 15.5333 282.985 16.336L283.321 16.7C284.422 15.076 285.374 13.6107 286.177 12.304L289.845 13.228L288.025 15.972L289.341 15.832C289.415 16.9147 289.779 18.8933 290.433 21.768L287.577 22.076C287.539 21.9453 287.502 21.7493 287.465 21.488L284.413 21.74C284.973 21.9453 285.477 22.16 285.925 22.384H290.461ZM279.793 18.828C280.297 18.828 280.689 18.8187 280.969 18.8L279.793 17.344V18.828ZM271.505 18.66C271.467 18.3987 271.43 18.0067 271.393 17.484C271.15 17.7827 271.019 17.9413 271.001 17.96C270.553 18.464 270.338 18.7067 270.357 18.688C270.879 18.688 271.262 18.6787 271.505 18.66ZM286.989 18.66C286.951 18.436 286.914 18.1187 286.877 17.708L286.205 18.688L286.989 18.66ZM279.961 22.132C279.979 22.188 279.989 22.272 279.989 22.384H282.257L282.677 21.908C281.911 21.9453 281.006 22.02 279.961 22.132ZM275.901 26.836C275.751 26.5 275.574 26.0333 275.369 25.436H270.917C272.559 26.0893 274.221 26.556 275.901 26.836ZM281.417 26.36C281.977 25.9493 282.369 25.6413 282.593 25.436H280.857C281.006 25.716 281.193 26.024 281.417 26.36ZM285.841 27.2C285.878 26.864 285.915 26.276 285.953 25.436H282.985L285.841 27.2ZM276.125 27.312C275.677 27.7413 275.014 28.4693 274.137 29.496C275.126 29.272 276.069 29.0013 276.965 28.684C276.647 28.236 276.367 27.7787 276.125 27.312ZM285.169 28.684C285.318 28.7587 285.449 28.7213 285.561 28.572C285.673 28.404 285.766 28.0027 285.841 27.368L284.609 28.46L285.169 28.684ZM270.077 28.908C270.039 29.5053 270.002 29.9533 269.965 30.252C270.618 30.1773 271.439 30.0467 272.429 29.86C271.551 29.5613 270.767 29.244 270.077 28.908ZM301.689 11.324C303.462 11.324 305.095 11.6227 306.589 12.22C308.101 12.8173 309.295 13.648 310.173 14.712C311.05 15.776 311.489 16.9987 311.489 18.38C311.489 19.5 311.218 20.4613 310.677 21.264C310.135 22.0667 309.445 22.72 308.605 23.224L307.121 24.064C306.318 24.512 305.786 24.82 305.525 24.988C305.095 25.2493 304.797 25.5387 304.629 25.856C304.461 26.1733 304.377 26.5467 304.377 26.976H297.965C297.965 25.5573 298.301 24.372 298.973 23.42C299.645 22.4493 300.774 21.6093 302.361 20.9C303.07 20.5827 303.583 20.2373 303.901 19.864C304.237 19.472 304.405 19.0333 304.405 18.548C304.405 18.0067 304.143 17.54 303.621 17.148C303.117 16.756 302.473 16.56 301.689 16.56C300.625 16.56 299.794 16.8213 299.197 17.344C298.618 17.8667 298.329 18.604 298.329 19.556C298.329 19.9293 298.385 20.3587 298.497 20.844C297.003 20.4147 294.773 20.2 291.805 20.2C291.786 20.032 291.777 19.7987 291.777 19.5C291.777 17.932 292.187 16.532 293.009 15.3C293.849 14.0493 295.015 13.0787 296.509 12.388C298.021 11.6787 299.747 11.324 301.689 11.324ZM304.405 34.06H297.909V29.076H304.405V34.06Z" fill="#334155"/>
<defs>
<radialGradient id="paint0_radial_4847_6798" cx="0" cy="0" r="1" gradientUnits="userSpaceOnUse" gradientTransform="translate(-1.74648 4.5) rotate(44.561) scale(28.5938 45.777)">
<stop stop-color="#FBFFD1"/>
<stop offset="1" stop-color="#D5009C"/>
</radialGradient>
<radialGradient id="paint1_radial_4847_6798" cx="0" cy="0" r="1" gradientUnits="userSpaceOnUse" gradientTransform="translate(38.5352 21.0775) rotate(18.0761) scale(23.4681 37.571)">
<stop stop-color="#FF41CD"/>
<stop offset="1" stop-color="#D4009C" stop-opacity="0"/>
</radialGradient>
</defs>
</svg>
