<svg width="251" height="23" viewBox="0 0 251 23" fill="none" xmlns="http://www.w3.org/2000/svg">
<path d="M27.8876 7.448C26.8983 8.26933 25.7503 9.632 24.4436 11.536H25.8156V22.176H19.0676V21.756H8.9316V22.176H2.1836V11.536H21.9516L20.6356 10.136L1.2876 11.116C1.25027 10.78 1.21293 10.5187 1.1756 10.332C0.932935 8.316 0.671602 6.73867 0.391602 5.6L4.1436 5.516L7.1116 0.588001L14.7836 1.064L12.3476 5.348L16.6876 5.236C16.0343 4.32133 15.3716 3.22 14.6996 1.932L20.7756 0.644C21.8956 2.23067 23.0809 3.584 24.3316 4.704C25.5823 5.824 26.7676 6.73867 27.8876 7.448ZM8.9316 15.736V17.024H19.0676V15.736H8.9316Z" fill="#334155"/>
<path d="M42.2236 17.08H55.3836C55.3836 17.9013 55.3463 18.6573 55.2716 19.348C55.1969 20.3747 54.6743 21.1027 53.7036 21.532C52.7329 21.9427 51.3329 22.148 49.5036 22.148H41.6076C41.4769 21.532 41.2623 20.9627 40.9636 20.44C38.6303 20.1227 36.5396 19.9547 34.6916 19.936C35.3636 18.2187 35.8209 16.6693 36.0636 15.288H47.7676V14.952H35.2516V13.748L35.0836 14.616C34.3369 18.4053 33.8049 20.9533 33.4876 22.26C31.0609 21.6627 29.2036 21.2613 27.9156 21.056C28.4943 19.4507 28.9703 17.9107 29.3436 16.436C29.7169 14.9427 30.0809 13.328 30.4356 11.592L32.3396 11.9C31.1636 11.2653 29.7729 10.7333 28.1676 10.304L30.7716 6.02C31.6676 6.28133 32.8063 6.748 34.1876 7.42L35.1116 7.84C35.1116 7.26133 35.0649 6.58 34.9716 5.796L36.1476 5.74L36.5676 5.292C36.2316 4.91867 35.8396 4.51733 35.3916 4.088L34.1036 6.776C32.1623 5.88 30.1463 5.22667 28.0556 4.816L30.4356 0.336001C31.2569 0.541334 32.4609 0.970667 34.0476 1.624L35.4756 2.184L35.8676 1.344L36.2316 1.68C36.5676 1.15733 36.8289 0.662667 37.0156 0.196001L39.1996 0.812001L37.6596 3.108L37.9956 3.472C38.6863 2.52 39.3209 1.49333 39.8996 0.392L41.6636 0.952001H48.9996V2.464H41.6636V1.736L41.1876 2.408C40.9449 2.8 40.6836 3.18267 40.4036 3.556L41.1036 3.444C41.1596 3.948 41.2249 4.452 41.2996 4.956C41.3929 5.46 41.4583 5.824 41.4956 6.048C41.6449 6.90667 41.7383 7.49467 41.7756 7.812L40.2076 8.036L40.1516 7.56L39.7316 7.644L39.6196 12.684H36.9316L37.0156 8.008L35.7276 8.148L35.5036 8.568L36.5676 8.54V9.436C36.5676 10.5187 36.5116 11.5827 36.3996 12.628C36.2503 12.6093 36.1009 12.5907 35.9516 12.572C35.8209 12.5533 35.6623 12.544 35.4756 12.544L35.3916 12.992H54.7116V16.8H42.2796L42.2236 17.08ZM49.1116 2.912L49.8396 1.344L50.2036 1.68C50.5396 1.15733 50.8009 0.662667 50.9876 0.196001L53.1716 0.812001C52.4809 1.85733 51.9676 2.61333 51.6316 3.08L51.9676 3.472C52.6583 2.55733 53.3023 1.53067 53.8996 0.392L55.6916 1.344L54.1796 3.584L55.0756 3.444C55.2436 4.844 55.4303 6.08533 55.6356 7.168L55.7476 7.812L54.1796 8.036L54.1236 7.56L53.7036 7.644L53.5916 12.684H50.9036L50.9876 8.008C50.8009 8.02667 50.1383 8.092 48.9996 8.204C48.9996 7.252 48.9436 6.44933 48.8316 5.796L50.1476 5.74L50.5396 5.32C50.1663 4.872 49.7089 4.396 49.1676 3.892V4.564H41.5516V2.912H49.1116ZM53.6196 4.424L52.8356 5.656C53.0969 5.656 53.4143 5.63733 53.7876 5.6L53.6196 4.424ZM38.9196 5.656L39.8156 5.6C39.7969 5.39467 39.7503 5.068 39.6756 4.62L38.9196 5.656ZM42.0836 5.068H48.5516V6.608H42.0836V5.068ZM48.5516 8.568H42.0836V7.056H48.5516V8.568ZM40.0956 12.544C40.0396 10.8827 40.0116 9.52 40.0116 8.456L41.4396 8.372C41.4396 10.052 41.4583 11.3867 41.4956 12.376C41.2529 12.432 40.7863 12.488 40.0956 12.544ZM55.3836 8.372C55.3836 9.11867 55.4023 9.76267 55.4396 10.304C55.4769 10.8267 55.5423 11.508 55.6356 12.348C54.7396 12.46 54.2169 12.5253 54.0676 12.544C54.0116 10.8827 53.9836 9.52 53.9836 8.456L55.3836 8.372ZM49.0556 12.516C49.1863 11.3213 49.2516 10.0053 49.2516 8.568L50.5396 8.54V9.436C50.5396 10.5187 50.4836 11.5827 50.3716 12.628C49.6249 12.5533 49.1863 12.516 49.0556 12.516ZM33.4596 12.096L34.9716 12.348C35.1023 11.6947 35.1863 11.1253 35.2236 10.64C35.2609 10.1547 35.2796 9.58533 35.2796 8.932L33.4596 12.096ZM48.7476 12.684H41.8876V9.044H48.7476V12.684ZM46.0596 10.584H44.5756V11.256H46.0596V10.584ZM41.6916 18.872L41.5796 19.18C43.2783 19.236 45.3223 19.264 47.7116 19.264C48.1223 19.264 48.4023 19.2453 48.5516 19.208C48.7196 19.152 48.8129 19.04 48.8316 18.872H41.6916Z" fill="#334155"/>
<path d="M76.1596 18.06V18.452H83.0756V21.952H62.7196V18.984C62.5516 20.2533 62.2903 21.392 61.9356 22.4C60.6103 21.7467 59.5276 21.2427 58.6876 20.888C57.8476 20.5333 56.9516 20.272 55.9996 20.104C56.3729 19.096 56.6529 18.116 56.8396 17.164C57.0263 16.1933 57.1569 14.9053 57.2316 13.3C57.3249 11.6947 57.3716 9.42667 57.3716 6.496V1.232L83.0476 1.26L83.0756 5.712H63.2236C63.2049 5.88 63.1956 6.02 63.1956 6.132C63.2143 6.22533 63.2236 6.31867 63.2236 6.412V7.812C63.2236 9.11867 63.2049 10.668 63.1676 12.46C63.7649 12.348 64.2129 12.2267 64.5116 12.096C64.8289 11.9653 65.0809 11.788 65.2676 11.564H63.5876V9.044H65.7716V8.736H63.8676C63.8863 7.952 63.7929 7.12133 63.5876 6.244H64.7076C66.7983 6.244 69.3276 6.17867 72.2956 6.048C72.1089 6.98133 72.0156 7.812 72.0156 8.54L70.1676 8.624V9.044H72.2956V11.564H70.3356C71.0823 11.956 71.9503 12.208 72.9396 12.32L72.6876 12.544C73.1543 12.432 73.5463 12.3107 73.8636 12.18C74.1996 12.0307 74.4983 11.8253 74.7596 11.564H72.7716V9.044H75.0676V8.736H72.8556C72.8743 7.91467 72.7716 7.084 72.5476 6.244H73.8076C76.1223 6.244 78.9129 6.17867 82.1796 6.048C81.9743 6.92533 81.8716 7.756 81.8716 8.54L79.6316 8.624V9.044H82.1796V11.564H79.9396C80.6303 12.012 81.5636 12.3387 82.7396 12.544C82.2169 13.2533 81.8529 14.2893 81.6476 15.652C80.7329 15.316 80.0609 14.7093 79.6316 13.832V15.54H76.1596V15.96H82.1516V18.06H76.1596ZM63.1396 12.992C63.0836 15.008 62.9623 16.828 62.7756 18.452H64.1476V15.848H69.7756V18.452H70.5596V15.204H71.3996C70.9143 14.9427 70.5036 14.6813 70.1676 14.42V15.54H65.7716V14.196C65.3796 14.868 64.8383 15.3533 64.1476 15.652C64.0729 15.1107 63.9609 14.6347 63.8116 14.224C63.6623 13.7947 63.4383 13.384 63.1396 12.992ZM73.0236 15.204C72.7436 14.644 72.4076 14.0933 72.0156 13.552C71.8289 13.944 71.6423 14.4947 71.4556 15.204H73.0236ZM75.0676 13.888C74.8063 14.3173 74.3863 14.756 73.8076 15.204H75.0676V13.888Z" fill="#334155"/>
<path d="M111.16 14.224V19.544H103.18V22.316H97.0476V19.544H84.8396V14.224H88.4796V12.068C88.1063 12.46 87.7049 12.8333 87.2756 13.188C86.8089 11.8067 86.3609 10.6213 85.9316 9.632C85.5209 8.624 85.0263 7.66267 84.4476 6.748C85.3996 6.11333 86.1556 5.25467 86.7156 4.172C87.2943 3.08933 87.5929 1.86667 87.6116 0.504L93.9396 0.560001C93.9023 0.989334 93.8463 1.44667 93.7716 1.932H110.096V6.972H103.18V8.176H109.34V12.628H103.18V14.224H111.16ZM97.0476 6.972H92.1476L91.5036 8.176H97.0476V6.972ZM94.4996 12.628V14.224H97.0476V12.628H94.4996Z" fill="#334155"/>
<path d="M136.5 14.672C136.873 15.2507 137.349 15.6987 137.928 16.016C138.506 16.3333 139.225 16.5387 140.084 16.632C139.673 17.416 139.318 18.2467 139.02 19.124C138.74 19.9827 138.45 21.0747 138.152 22.4C137.106 21.7653 136.173 20.916 135.352 19.852C135.37 19.9453 135.38 20.076 135.38 20.244C135.38 21.2893 134.857 21.868 133.812 21.98C132.71 22.0547 131.702 22.092 130.788 22.092C129.836 22.092 128.921 22.0547 128.044 21.98C127.428 21.924 126.97 21.784 126.672 21.56C126.392 21.3173 126.252 20.972 126.252 20.524V20.44C125.58 21.1307 124.73 21.784 123.704 22.4C123.386 20.888 123.06 19.6653 122.724 18.732L122.892 20.412L122.948 21L121.576 21.168L120.288 21.336C120.194 18.1253 120.148 15.652 120.148 13.916L122.556 13.776C122.556 15.0453 122.565 15.9507 122.584 16.492C123.853 16.212 124.777 15.6053 125.356 14.672H122.892V13.048L120.232 13.468L120.176 12.88L119.644 12.964V22.204H115.584V13.524C114.594 13.6547 113.549 13.7667 112.448 13.86C112.448 12.18 112.373 10.808 112.224 9.744L113.932 9.688L114.66 8.764C114.268 8.27867 113.829 7.77467 113.344 7.252C112.858 6.72933 112.438 6.30933 112.084 5.992L113.652 2.156C114.044 2.548 114.24 2.744 114.24 2.744C114.688 1.99733 115.108 1.148 115.5 0.196001L119.14 1.204C118.001 3.07067 117.152 4.41467 116.592 5.236L116.928 5.628C118.048 3.948 119.037 2.24933 119.896 0.532L123.256 1.68H128.156L128.352 1.036H132.972L132.776 1.68H138.684V14.672H136.5ZM121.996 5.824L122.5 8.932C122.612 9.492 122.742 10.2573 122.892 11.228V3.024L120.96 5.992L121.996 5.824ZM127.12 4.984V5.516L128.128 5.096C128.52 5.30133 128.809 5.488 128.996 5.656C129.145 5.488 129.294 5.264 129.444 4.984H127.12ZM134.512 5.404V4.984H131.712L131.572 5.404H134.512ZM127.12 7C127.586 6.79467 127.885 6.65467 128.016 6.58C127.754 6.37467 127.456 6.16933 127.12 5.964V7ZM131.824 7.952C132.085 7.76533 132.337 7.52267 132.58 7.224H130.76L131.824 7.952ZM128.1 9.044C127.857 8.68933 127.53 8.27867 127.12 7.812V9.128L128.1 9.044ZM119.672 9.492C119.578 8.89467 119.513 8.47467 119.476 8.232L119.14 8.736C119.065 8.848 118.981 8.96933 118.888 9.1C118.794 9.23067 118.692 9.38 118.58 9.548L119.672 9.492ZM129.5 8.372C129.22 8.61467 128.93 8.82933 128.632 9.016C129.173 8.96 129.63 8.876 130.004 8.764L129.5 8.372ZM134.12 9.912L133.196 11.004H134.512V8.68C134.288 8.96 134.008 9.25867 133.672 9.576L134.12 9.912ZM127.12 11.004H127.82C127.633 10.5187 127.4 10.052 127.12 9.604V11.004ZM132.356 10.472C132.132 10.6027 131.758 10.78 131.236 11.004H132.916L132.356 10.472ZM112.728 14.168C113.082 14.168 113.577 14.1493 114.212 14.112L115.108 14.084V15.036C115.108 16.268 115.089 17.36 115.052 18.312C115.014 19.264 114.921 20.328 114.772 21.504C114.622 21.4853 114.305 21.448 113.82 21.392C113.353 21.3173 112.802 21.28 112.168 21.28C112.41 20.048 112.56 18.9373 112.616 17.948C112.69 16.94 112.728 15.68 112.728 14.168ZM130.34 14.672H126.42C127.316 15.232 128.1 15.6613 128.772 15.96H129.416C129.266 15.7733 128.986 15.4747 128.576 15.064L130.34 14.672ZM133.728 15.344C134.232 15.1387 134.736 14.9147 135.24 14.672H132.888C133.354 15.064 133.634 15.288 133.728 15.344ZM131.628 17.668C131.889 17.6493 132.02 17.5467 132.02 17.36C132.02 17.3413 131.982 17.164 131.908 16.828L130.48 17.22L129.808 16.408L129.668 17.192C129.649 17.248 129.64 17.332 129.64 17.444C129.64 17.6307 129.733 17.724 129.92 17.724C130.89 17.724 131.46 17.7053 131.628 17.668ZM132.104 16.8C132.44 16.856 132.766 16.884 133.084 16.884C133.326 16.884 133.513 16.8747 133.644 16.856L133.476 16.408L132.104 16.8Z" fill="#334155"/>
<path d="M163.884 11.872C164.462 12.2453 164.966 12.5347 165.396 12.74C165.825 12.9453 166.292 13.104 166.796 13.216C167.094 14.7653 167.244 16.212 167.244 17.556C167.244 18.8627 167.094 19.8613 166.796 20.552C166.59 21.0373 166.348 21.392 166.068 21.616C165.788 21.8213 165.545 21.9427 165.34 21.98C165.134 21.9987 164.882 22.008 164.584 22.008H161.812C161.028 22.008 160.421 21.9427 159.992 21.812C159.581 21.6627 159.282 21.42 159.096 21.084C158.928 20.7293 158.844 20.216 158.844 19.544C158.844 19.3573 158.862 18.984 158.9 18.424L159.432 11.956L158.816 12.012C158.741 14.7187 158.582 16.8 158.34 18.256C158.097 19.6933 157.761 21.0373 157.332 22.288C155.577 21.6907 154.14 21.2613 153.02 21L151.34 21.168L149.828 21.336C149.716 18.4427 149.66 15.9693 149.66 13.916L152.516 13.776C152.516 15.7733 152.59 17.5187 152.74 19.012C153.113 18.172 153.412 17.2573 153.636 16.268C153.86 15.2787 154.009 14.0187 154.084 12.488L153.58 12.544C153.505 11.592 153.43 10.7987 153.356 10.164C153.281 9.52934 153.15 8.736 152.964 7.784L154.336 7.7L155.148 5.908H152.628V3.416L150.612 5.992L151.844 5.824C152.254 7.616 152.553 9.02533 152.74 10.052C152.945 11.06 153.094 12.0587 153.188 13.048L149.744 13.496L149.688 12.88L149.156 12.964V22.204H144.2V13.524C143.042 13.6547 141.81 13.7667 140.504 13.86C140.504 12.18 140.429 10.808 140.28 9.744L142.268 9.688L143.164 8.764C142.678 8.26 142.146 7.74667 141.568 7.224C140.989 6.70133 140.494 6.29067 140.084 5.992L141.932 2.156L142.66 2.744C143.089 2.14667 143.574 1.29733 144.116 0.196001L148.456 1.204L147.98 1.848C146.841 3.43467 146.001 4.564 145.46 5.236L145.824 5.628C147.112 3.948 148.297 2.24933 149.38 0.532L153.188 1.624H156.828V0.588001H161.952V1.624H166.908V5.908H164.864C165.872 6.86 166.945 7.74667 168.084 8.568C167.542 8.99733 166.973 9.548 166.376 10.22C165.797 10.892 165.321 11.536 164.948 12.152L164.22 11.452L163.912 11.48L163.884 11.872ZM160.16 5.908L159.516 7.364L160.832 7.28C160.57 6.90667 160.384 6.62667 160.272 6.44L162.316 5.908H160.16ZM148.932 8.148C148.409 8.78267 148.036 9.24933 147.812 9.548L149.184 9.492L148.932 8.148ZM163.52 16.072V16.128C163.52 16.2587 163.548 16.3707 163.604 16.464C163.678 16.5387 163.762 16.576 163.856 16.576C163.949 16.576 164.033 16.5293 164.108 16.436C164.182 16.3427 164.22 16.212 164.22 16.044C164.22 15.1107 164.089 13.9347 163.828 12.516L163.52 16.072ZM140.868 14.168C141.241 14.168 141.82 14.1493 142.604 14.112L143.724 14.084C143.724 15.7453 143.696 17.0707 143.64 18.06C143.602 19.0307 143.472 20.1787 143.248 21.504C143.117 21.4853 142.762 21.448 142.184 21.392C141.624 21.3173 140.952 21.28 140.168 21.28C140.466 20.048 140.653 18.9373 140.728 17.948C140.821 16.9587 140.868 15.6987 140.868 14.168Z" fill="#334155"/>
<path d="M201.185 5.236L200.737 6.44C199.972 8.49333 199.44 9.86533 199.141 10.556C200.373 12.46 200.989 14.1587 200.989 15.652C200.989 17.3507 200.541 18.6573 199.645 19.572C198.768 20.468 197.554 20.8973 196.005 20.86C195.8 19.1427 195.436 17.752 194.913 16.688V22.064H189.677V4.536L188.809 5.796H189.033V9.548H185.645L185.393 9.772L185.029 10.08H189.005V22.232H183.797V21.952H180.717V22.232H175.453V15.904L174.641 16.24C174.473 14.2427 174.09 12.516 173.493 11.06C174.818 10.8547 175.948 10.6493 176.881 10.444C177.814 10.22 178.682 9.92133 179.485 9.548H174.165V5.796H177.161V5.208H174.697V1.4H177.161V0.644H182.845V1.4H185.841V2.38C185.916 2.23067 185.981 2.09067 186.037 1.96C186.112 1.81067 186.177 1.68 186.233 1.568L186.485 0.980001L189.677 2.156V1.148H199.757L201.185 5.236ZM182.845 5.208V5.796H183.853L184.273 5.208H182.845ZM194.913 5.88V9.212C195.548 7.90533 195.874 6.79467 195.893 5.88H194.913ZM194.913 15.652C195.174 15.54 195.389 15.372 195.557 15.148C195.725 14.924 195.809 14.6533 195.809 14.336C195.809 13.7013 195.51 12.9733 194.913 12.152V15.652ZM180.717 14.224H183.797V13.496H180.717V14.224ZM180.717 17.36V18.116H183.797V17.36H180.717Z" fill="#334155"/>
<path d="M229.129 11.06V14.112H226.105C226.814 14.5413 227.766 14.9333 228.961 15.288C228.961 17.3787 228.896 18.9093 228.765 19.88C228.653 20.832 228.457 21.4573 228.177 21.756C227.897 22.036 227.468 22.176 226.889 22.176C225.862 22.176 224.92 22.1013 224.061 21.952C223.221 21.784 222.325 21.532 221.373 21.196C220.514 20.8973 219.674 20.5333 218.853 20.104C217.322 20.8507 215.045 21.5693 212.021 22.26C210.789 21.42 209.566 20.7293 208.353 20.188C208.166 20.916 207.83 21.616 207.345 22.288L204.965 21.616C203.285 21.1307 202.221 20.832 201.773 20.72C202.24 20.1973 202.576 19.6467 202.781 19.068C203.005 18.4707 203.145 17.8173 203.201 17.108C203.257 16.3987 203.285 15.4 203.285 14.112H202.193V11.06H213.421C213.253 9.436 213.169 7.21467 213.169 4.396V2.548C213.206 2.51067 212.861 2.912 212.133 3.752L211.405 4.62L212.413 4.508C212.525 6.72933 212.74 8.708 213.057 10.444L210.565 10.752L210.481 10.164C208.558 10.3133 207.28 10.4067 206.645 10.444C204.405 10.5933 202.874 10.7053 202.053 10.78L201.941 7.532C202.912 7.49467 203.752 7.476 204.461 7.476C203.584 6.3 202.762 5.376 201.997 4.704L203.789 2.156L204.293 2.688C204.797 2.016 205.264 1.288 205.693 0.504L208.997 1.652C207.821 3.12667 206.934 4.19067 206.337 4.844L206.673 5.18C207.793 3.87333 208.876 2.548 209.921 1.204L213.169 2.436L213.197 0.616H218.461V2.828L218.937 2.156L219.357 2.632C219.898 1.86667 220.29 1.232 220.533 0.728001L223.893 1.512C222.96 3.04267 222.213 4.20933 221.653 5.012L221.989 5.376C223.09 3.752 224.042 2.28667 224.845 0.980001L228.513 1.904L226.693 4.648L228.009 4.508C228.084 5.59067 228.448 7.56933 229.101 10.444L226.245 10.752C226.208 10.6213 226.17 10.4253 226.133 10.164L223.081 10.416C223.641 10.6213 224.145 10.836 224.593 11.06H229.129ZM218.461 7.504C218.965 7.504 219.357 7.49467 219.637 7.476L218.461 6.02V7.504ZM210.173 7.336C210.136 7.07467 210.098 6.68267 210.061 6.16C209.818 6.45867 209.688 6.61733 209.669 6.636C209.221 7.14 209.006 7.38267 209.025 7.364C209.548 7.364 209.93 7.35467 210.173 7.336ZM225.657 7.336C225.62 7.112 225.582 6.79467 225.545 6.384L224.873 7.364L225.657 7.336ZM218.629 10.808C218.648 10.864 218.657 10.948 218.657 11.06H220.925L221.345 10.584C220.58 10.6213 219.674 10.696 218.629 10.808ZM214.569 15.512C214.42 15.176 214.242 14.7093 214.037 14.112H209.585C211.228 14.7653 212.889 15.232 214.569 15.512ZM220.085 15.036C220.645 14.6253 221.037 14.3173 221.261 14.112H219.525C219.674 14.392 219.861 14.7 220.085 15.036ZM224.509 15.876C224.546 15.54 224.584 14.952 224.621 14.112H221.653L224.509 15.876ZM214.793 15.988C214.345 16.4173 213.682 17.1453 212.805 18.172C213.794 17.948 214.737 17.6773 215.633 17.36C215.316 16.912 215.036 16.4547 214.793 15.988ZM223.837 17.36C223.986 17.4347 224.117 17.3973 224.229 17.248C224.341 17.08 224.434 16.6787 224.509 16.044L223.277 17.136L223.837 17.36ZM208.745 17.584C208.708 18.1813 208.67 18.6293 208.633 18.928C209.286 18.8533 210.108 18.7227 211.097 18.536C210.22 18.2373 209.436 17.92 208.745 17.584Z" fill="#334155"/>
<path d="M240.357 0C242.13 0 243.764 0.298667 245.257 0.896C246.769 1.49333 247.964 2.324 248.841 3.388C249.718 4.452 250.157 5.67467 250.157 7.056C250.157 8.176 249.886 9.13733 249.345 9.94C248.804 10.7427 248.113 11.396 247.273 11.9L245.789 12.74C244.986 13.188 244.454 13.496 244.193 13.664C243.764 13.9253 243.465 14.2147 243.297 14.532C243.129 14.8493 243.045 15.2227 243.045 15.652H236.633C236.633 14.2333 236.969 13.048 237.641 12.096C238.313 11.1253 239.442 10.2853 241.029 9.576C241.738 9.25867 242.252 8.91333 242.569 8.54C242.905 8.148 243.073 7.70933 243.073 7.224C243.073 6.68267 242.812 6.216 242.289 5.824C241.785 5.432 241.141 5.236 240.357 5.236C239.293 5.236 238.462 5.49733 237.865 6.02C237.286 6.54267 236.997 7.28 236.997 8.232C236.997 8.60533 237.053 9.03467 237.165 9.52C235.672 9.09067 233.441 8.876 230.473 8.876C230.454 8.708 230.445 8.47467 230.445 8.176C230.445 6.608 230.856 5.208 231.677 3.976C232.517 2.72533 233.684 1.75467 235.177 1.064C236.689 0.354667 238.416 0 240.357 0ZM243.073 22.736H236.577V17.752H243.073V22.736Z" fill="#334155"/>
</svg>
