<svg width="23" height="23" viewBox="0 0 23 23" fill="none" xmlns="http://www.w3.org/2000/svg">
<g clip-path="url(#clip0_6155_2983)">
<rect x="0.0866699" y="0.534424" width="21.9655" height="21.9655" rx="4.7069" fill="#D4009B"/>
<path d="M16.5608 7.20254C16.5608 7.85242 16.034 8.37926 15.3841 8.37926C14.7342 8.37926 14.2074 7.85242 14.2074 7.20254C14.2074 6.55265 14.7342 6.02581 15.3841 6.02581C16.034 6.02581 16.5608 6.55265 16.5608 7.20254Z" fill="white"/>
<path fill-rule="evenodd" clip-rule="evenodd" d="M11.0694 15.4396C13.2357 15.4396 14.9919 13.6835 14.9919 11.5172C14.9919 9.3509 13.2357 7.59478 11.0694 7.59478C8.90315 7.59478 7.14702 9.3509 7.14702 11.5172C7.14702 13.6835 8.90315 15.4396 11.0694 15.4396ZM11.0694 13.8706C12.3692 13.8706 13.4229 12.817 13.4229 11.5172C13.4229 10.2174 12.3692 9.16374 11.0694 9.16374C9.76966 9.16374 8.71599 10.2174 8.71599 11.5172C8.71599 12.817 9.76966 13.8706 11.0694 13.8706Z" fill="white"/>
<path fill-rule="evenodd" clip-rule="evenodd" d="M3.22461 11.2034C3.22461 8.56729 3.22461 7.24923 3.73763 6.24237C4.1889 5.35671 4.90896 4.63665 5.79462 4.18538C6.80148 3.67236 8.11953 3.67236 10.7556 3.67236H11.3832C14.0193 3.67236 15.3374 3.67236 16.3443 4.18538C17.2299 4.63665 17.95 5.35671 18.4012 6.24237C18.9143 7.24923 18.9143 8.56729 18.9143 11.2034V11.831C18.9143 14.4671 18.9143 15.7851 18.4012 16.792C17.95 17.6777 17.2299 18.3977 16.3443 18.849C15.3374 19.362 14.0193 19.362 11.3832 19.362H10.7556C8.11953 19.362 6.80148 19.362 5.79462 18.849C4.90896 18.3977 4.1889 17.6777 3.73763 16.792C3.22461 15.7851 3.22461 14.4671 3.22461 11.831V11.2034ZM10.7556 5.24133H11.3832C12.7272 5.24133 13.6408 5.24255 14.3469 5.30025C15.0348 5.35645 15.3866 5.45831 15.632 5.58334C16.2224 5.88419 16.7024 6.36423 17.0033 6.95467C17.1283 7.20005 17.2302 7.55182 17.2864 8.23968C17.3441 8.94586 17.3453 9.85945 17.3453 11.2034V11.831C17.3453 13.1749 17.3441 14.0885 17.2864 14.7947C17.2302 15.4826 17.1283 15.8343 17.0033 16.0797C16.7024 16.6702 16.2224 17.1502 15.632 17.451C15.3866 17.5761 15.0348 17.6779 14.3469 17.7341C13.6408 17.7918 12.7272 17.7931 11.3832 17.7931H10.7556C9.4117 17.7931 8.4981 17.7918 7.79193 17.7341C7.10407 17.6779 6.7523 17.5761 6.50692 17.451C5.91648 17.1502 5.43643 16.6702 5.13559 16.0797C5.01056 15.8343 4.90869 15.4826 4.85249 14.7947C4.7948 14.0885 4.79357 13.1749 4.79357 11.831V11.2034C4.79357 9.85945 4.7948 8.94586 4.85249 8.23968C4.90869 7.55182 5.01056 7.20005 5.13559 6.95467C5.43643 6.36423 5.91648 5.88419 6.50692 5.58334C6.7523 5.45831 7.10407 5.35645 7.79193 5.30025C8.4981 5.24255 9.4117 5.24133 10.7556 5.24133Z" fill="white"/>
</g>
<defs>
<clipPath id="clip0_6155_2983">
<rect width="21.9655" height="21.9655" fill="white" transform="translate(0.0690918 0.517212)"/>
</clipPath>
</defs>
</svg>
