<svg width="22" height="23" viewBox="0 0 22 23" fill="none" xmlns="http://www.w3.org/2000/svg">
<g clip-path="url(#clip0_6155_2988)">
<path d="M0.244057 6.76409C0.344887 5.21178 1.59293 3.99523 3.14661 3.91826C5.39644 3.80679 8.61211 3.67236 11.035 3.67236C13.4579 3.67236 16.6736 3.80679 18.9234 3.91826C20.4771 3.99523 21.7251 5.21178 21.826 6.7641C21.9226 8.25133 22.0178 10.0813 22.0178 11.5172C22.0178 12.9531 21.9226 14.7831 21.826 16.2703C21.7251 17.8226 20.4771 19.0392 18.9234 19.1161C16.6736 19.2276 13.4579 19.362 11.035 19.362C8.61211 19.362 5.39645 19.2276 3.14661 19.1161C1.59293 19.0392 0.344887 17.8226 0.244057 16.2703C0.147454 14.7831 0.0522461 12.9531 0.0522461 11.5172C0.0522461 10.0813 0.147454 8.25133 0.244057 6.76409Z" fill="#D4009B"/>
<path d="M8.68164 8.37927V14.6551L14.9575 11.5172L8.68164 8.37927Z" fill="white"/>
</g>
<defs>
<clipPath id="clip0_6155_2988">
<rect width="21.9655" height="21.9655" fill="white" transform="translate(0.034668 0.517212)"/>
</clipPath>
</defs>
</svg>
